<?xml version="1.0" standalone="no"?><!DOCTYPE svg PUBLIC "-//W3C//DTD SVG 1.1//EN" "http://www.w3.org/Graphics/SVG/1.1/DTD/svg11.dtd"><svg t="1498813867827" class="icon" style="" viewBox="0 0 1024 1024" version="1.1" xmlns="http://www.w3.org/2000/svg" p-id="6128" xmlns:xlink="http://www.w3.org/1999/xlink" width="30" height="30"><defs><style type="text/css"></style></defs><path d="M207.95392 723.45088l45.53728-45.53216a762.71104 762.71104 0 0 1-34.78016-29.00992c-53.65248-47.488-93.71136-95.56992-113.4592-120.91904 19.75296-25.35424 59.81184-73.43616 113.4592-120.92416 69.53984-61.54752 177.0496-134.91712 294.31296-134.91712 42.25024 0 83.23584 9.52832 121.63584 24.59648l48.88064-48.87552c-57.63072-26.33728-114.90304-39.68-170.51648-39.68-61.44512 0-124.91776 16.2816-188.66176 48.39424-49.86368 25.11872-100.04992 59.97056-149.16096 103.58784C92.288 433.79712 41.1904 506.6496 39.05536 509.71136a31.98464 31.98464 0 0 0 0 36.5568c2.13504 3.06176 53.23264 75.90912 136.1408 149.53984a843.75552 843.75552 0 0 0 32.75776 27.64288zM986.98752 509.71136c-2.12992-3.06688-53.23264-75.91936-136.1408-149.54496a809.08288 809.08288 0 0 0-60.9024-49.16736l128.16896-128.16896-45.22496-45.22496L169.32864 841.16992l45.22496 45.23008 94.83776-94.83776c4.992 2.70848 9.984 5.32992 14.97088 7.83872 63.744 32.10752 127.21664 48.38912 188.66176 48.38912 61.44512 0 124.91776-16.2816 188.66176-48.38912 49.86368-25.11872 100.04992-59.97056 149.16608-103.58784 82.90304-73.6256 134.00576-146.47808 136.1408-149.53984a31.98464 31.98464 0 0 0-0.00512-36.56192z m-330.05056 18.2784c0 79.34976-64.55808 143.90784-143.91296 143.90784a142.92992 142.92992 0 0 1-67.25632-16.72192l194.44736-194.44736a143.04256 143.04256 0 0 1 16.72192 67.26144z m150.4 120.91904c-69.54496 61.54752-177.05472 134.92224-294.31296 134.92224-55.15776 0-108.14976-16.24064-156.05248-39.84384l42.17344-42.17344a206.6432 206.6432 0 0 0 113.88416 34.048c114.62144 0 207.87712-93.25056 207.87712-207.872 0-42.01472-12.53376-81.152-34.048-113.88416l57.216-57.216c23.43424 16.49152 44.71296 33.75104 63.27296 50.18112 53.65248 47.48288 93.70112 95.5648 113.4592 120.92416-19.76832 25.34912-59.81696 73.43616-113.46944 120.91392z" fill="#dbdbdb" p-id="6129"></path><path d="M513.024 384.0768c10.624 0 20.97152 1.16736 30.94528 3.36384l50.63168-50.6368a206.7456 206.7456 0 0 0-81.57696-16.68608c-114.62144 0-207.872 93.25056-207.872 207.872a206.79168 206.79168 0 0 0 16.68608 81.58208l50.63168-50.6368a144.0256 144.0256 0 0 1-3.35872-30.94528c0-79.34976 64.55808-143.91296 143.91296-143.91296z" fill="#dbdbdb" p-id="6130"></path></svg>