<?xml version="1.0" standalone="no"?><!DOCTYPE svg PUBLIC "-//W3C//DTD SVG 1.1//EN" "http://www.w3.org/Graphics/SVG/1.1/DTD/svg11.dtd"><svg t="1498813819641" class="icon" style="" viewBox="0 0 1024 1024" version="1.1" xmlns="http://www.w3.org/2000/svg" p-id="4993" xmlns:xlink="http://www.w3.org/1999/xlink" width="30" height="30"><defs><style type="text/css"></style></defs><path d="M97.436 542.896c-5.23 0-10.521-1.275-15.424-3.979-15.486-8.531-21.128-28-12.61-43.494 6.643-12.06 165.71-295.18 442.05-295.18 276.19 0 437.322 282.971 444.04 295.018 8.618 15.442 3.09 34.944-12.347 43.57-15.422 8.605-34.949 3.1-43.568-12.36-1.465-2.59-149.86-262.18-388.124-262.18-238.9 0-384.495 259.404-385.934 262.024-5.843 10.59-16.788 16.58-28.083 16.58z" p-id="4994" fill="#dbdbdb"></path><path d="M511.452 821.495c-276.34 0-435.407-283.128-442.05-295.18-8.519-15.499-2.877-34.97 12.61-43.5 15.486-8.514 34.926-2.903 43.483 12.583 1.45 2.614 147.796 262.054 385.957 262.054 238.264 0 386.66-259.602 388.135-262.223 8.645-15.412 28.16-20.929 43.571-12.297 15.423 8.638 20.952 28.108 12.333 43.539-6.717 12.047-167.849 295.024-444.039 295.024z" p-id="4995" fill="#dbdbdb"></path><path d="M512.502 681.123c-93.881 0-170.26-76.375-170.26-170.25 0-93.887 76.38-170.262 170.26-170.262 93.881 0 170.25 76.375 170.25 170.262 0 93.875-76.369 170.25-170.25 170.25z m0-276.466c-58.567 0-106.215 47.647-106.215 106.215 0 58.556 47.648 106.203 106.215 106.203 58.557 0 106.204-47.648 106.204-106.203 0-58.568-47.647-106.215-106.204-106.215z" p-id="4996" fill="#dbdbdb"></path></svg>